<svg xmlns="http://www.w3.org/2000/svg" id="ae-s-route-4" width="38" height="26" viewBox="0 0 38 26"><g><path d="M0,0 H38 V26 H0 Z" fill="none"/><path d="M19,1.5a.47.47,0,0,1,.3.1l6.2,3.81a.54.54,0,0,0,.3.1H32a.47.47,0,0,1,.48.47V9.05a.47.47,0,0,0,.18.37l4.16,3.21a.47.47,0,0,1,0,.74l-4.16,3.21a.47.47,0,0,0-.18.37V20a.47.47,0,0,1-.48.47H25.8a.54.54,0,0,0-.3.1L19.3,24.4a.5.5,0,0,1-.6,0l-6.2-3.81a.54.54,0,0,0-.3-.1H6A.47.47,0,0,1,5.52,20V17a.47.47,0,0,0-.18-.37L1.18,13.37a.47.47,0,0,1,0-.74L5.34,9.42a.47.47,0,0,0,.18-.37V6A.47.47,0,0,1,6,5.51h6.2a.54.54,0,0,0,.3-.1L18.7,1.6a.47.47,0,0,1,.3-.1m0-1a1.51,1.51,0,0,0-.85.27l-6.1,3.74H6A1.47,1.47,0,0,0,4.52,6V8.79L.57,11.84a1.47,1.47,0,0,0,0,2.32l4,3.05V20A1.47,1.47,0,0,0,6,21.49h6.05l6.1,3.74a1.47,1.47,0,0,0,1.7,0L26,21.49H32A1.47,1.47,0,0,0,33.48,20V17.21l4-3.05a1.47,1.47,0,0,0,0-2.32l-4-3.05V6A1.47,1.47,0,0,0,32,4.51H26L19.85.77A1.51,1.51,0,0,0,19,.5Z" fill="hsl(0, 0%, 100%)"/><path d="M32.66,16.58l4.16-3.21a.47.47,0,0,0,0-.74L32.66,9.42a.47.47,0,0,1-.18-.37V6A.47.47,0,0,0,32,5.51H25.8a.54.54,0,0,1-.3-.1L19.3,1.6a.51.51,0,0,0-.6,0L12.5,5.41a.54.54,0,0,1-.3.1H6A.47.47,0,0,0,5.52,6V9.05a.47.47,0,0,1-.18.37L1.18,12.63a.47.47,0,0,0,0,.74l4.16,3.21a.47.47,0,0,1,.18.37V20a.47.47,0,0,0,.48.47h6.2a.54.54,0,0,1,.3.1l6.2,3.81a.51.51,0,0,0,.6,0l6.2-3.81a.54.54,0,0,1,.3-.1H32a.47.47,0,0,0,.48-.47V17A.47.47,0,0,1,32.66,16.58Z" fill="hsl(140, 74%, 37%)"/></g></svg>