<svg xmlns="http://www.w3.org/2000/svg" id="osaka-subway" width="20" height="17" viewBox="0 0 20 17"><g><path d="M2,3 H18 C18,3 20,3 20,5 V15 C20,15 20,17 18,17 H2 C2,17 0,17 0,15 V5 C0,5 0,3 2,3" fill="hsl(30, 7%, 84%)" opacity="0.75"/><path d="M2,4 H18 C18,4 19,4 19,5 V15 C19,15 19,16 18,16 H2 C2,16 1,16 1,15 V5 C1,5 1,4 2,4" fill="hsl(0, 0%, 100%)"/><path d="M0,0 H20 V17 H0 Z" fill="none"/><path d="M18,8H14.58A5,5,0,0,0,5.42,8H2V9H5.1a5.18,5.18,0,0,0,0,2H2v1H5.42a5,5,0,0,0,9.16,0H18ZM10,5.5A4.49,4.49,0,0,1,14,8H6A4.49,4.49,0,0,1,10,5.5ZM5.5,10a4.21,4.21,0,0,1,.12-1h8.76a4.23,4.23,0,0,1,0,2H5.62A4.21,4.21,0,0,1,5.5,10ZM10,14.5A4.49,4.49,0,0,1,6,12h8A4.49,4.49,0,0,1,10,14.5ZM17,11H14.9a5.18,5.18,0,0,0,0-2H17Z" fill="hsl(0, 87%, 59%)"/></g></svg>