<svg xmlns="http://www.w3.org/2000/svg" id="pedestrian-polygon" width="64" height="64" viewBox="0 0 64 64"><path d="M0,59.25v1.5L3.25,64h1.5ZM32.75,0h-1.5L64,32.75v-1.5Zm4,0h-1.5L64,28.75v-1.5Zm8,0h-1.5L64,20.75v-1.5Zm16,0h-1.5L64,4.75V3.25Zm-4,0h-1.5L64,8.75V7.25Zm-8,0h-1.5L64,16.75v-1.5Zm4,0h-1.5L64,12.75v-1.5Zm-12,0h-1.5L64,24.75v-1.5Zm-36,0H3.25L64,60.75v-1.5ZM64,.75V0h-.75ZM8.75,0H7.25L64,56.75v-1.5Zm4,0h-1.5L64,52.75v-1.5Zm16,0h-1.5L64,36.75v-1.5Zm-4,0h-1.5L64,40.75v-1.5Zm-8,0h-1.5L64,48.75v-1.5Zm4,0h-1.5L64,44.75v-1.5ZM0,15.25v1.5L47.25,64h1.5Zm0-4v1.5L51.25,64h1.5Zm0,8v1.5L43.25,64h1.5Zm0-12v1.5L55.25,64h1.5Zm0,16v1.5L39.25,64h1.5Zm0-20v1.5L59.25,64h1.5Zm0,52v1.5L7.25,64h1.5Zm0,8V64H.75ZM.75,0H0V.75L63.25,64H64v-.75ZM0,47.25v1.5L15.25,64h1.5Zm0,4v1.5L11.25,64h1.5Zm0-24v1.5L35.25,64h1.5Zm0,16v1.5L19.25,64h1.5Zm0-12v1.5L31.25,64h1.5Zm0,8v1.5L23.25,64h1.5Zm0-4v1.5L27.25,64h1.5Z" fill="hsl(175, 0%, 100%)"/></svg>